<svg width="633" height="643" viewBox="0 0 633 643" fill="none" xmlns="http://www.w3.org/2000/svg">
<mask id="path-1-outside-1_2022_3" maskUnits="userSpaceOnUse" x="0" y="0" width="633" height="643" fill="black">
<rect fill="white" width="633" height="643"/>
<path d="M81.9509 8V26.7031H114.917V248.469H81.9509V266.727H289.548V202.156H268.165V245.797H150.11V26.7031H183.077V8H81.9509ZM422.749 27.5937L330.087 268.063H307.367V286.766H380.427V268.063H351.916L373.745 211.508H482.444L504.273 268.063H475.316V286.766H569.76V268.063H544.367L451.705 27.5937H422.749ZM428.54 69.4531L475.762 192.805H380.873L428.54 69.4531ZM8 288.547V349.555H29.3834V309.477H105.562V529.461H72.5957V547.719H173.721V529.461H140.755V309.477H216.934V349.555H237.871V288.547H8ZM376.863 306.805V325.063H404.484L480.217 438.617L405.82 547.273H375.973V565.531H461.506V547.273H428.095L491.354 454.648L553.276 547.273H522.538V565.531H625V547.273H597.38L515.41 424.813L584.015 325.063H613.417V306.805H528.329V325.063H561.741L504.718 408.781L449.032 325.063H479.771V306.805H376.863ZM185.304 376.273V394.531H218.27V616.742H185.304V635H396.91V577.555H375.527V613.625H253.909V505.414H338.552V537.922H359.935V451.531H338.552V484.039H253.909V397.203H372.854V433.719H394.237V376.273H185.304Z"/>
</mask>
<path d="M81.9509 8V26.7031H114.917V248.469H81.9509V266.727H289.548V202.156H268.165V245.797H150.11V26.7031H183.077V8H81.9509ZM422.749 27.5937L330.087 268.063H307.367V286.766H380.427V268.063H351.916L373.745 211.508H482.444L504.273 268.063H475.316V286.766H569.76V268.063H544.367L451.705 27.5937H422.749ZM428.54 69.4531L475.762 192.805H380.873L428.54 69.4531ZM8 288.547V349.555H29.3834V309.477H105.562V529.461H72.5957V547.719H173.721V529.461H140.755V309.477H216.934V349.555H237.871V288.547H8ZM376.863 306.805V325.063H404.484L480.217 438.617L405.82 547.273H375.973V565.531H461.506V547.273H428.095L491.354 454.648L553.276 547.273H522.538V565.531H625V547.273H597.38L515.41 424.813L584.015 325.063H613.417V306.805H528.329V325.063H561.741L504.718 408.781L449.032 325.063H479.771V306.805H376.863ZM185.304 376.273V394.531H218.27V616.742H185.304V635H396.91V577.555H375.527V613.625H253.909V505.414H338.552V537.922H359.935V451.531H338.552V484.039H253.909V397.203H372.854V433.719H394.237V376.273H185.304Z" fill="white"/>
<path d="M81.9509 8V26.7031H114.917V248.469H81.9509V266.727H289.548V202.156H268.165V245.797H150.11V26.7031H183.077V8H81.9509ZM422.749 27.5937L330.087 268.063H307.367V286.766H380.427V268.063H351.916L373.745 211.508H482.444L504.273 268.063H475.316V286.766H569.76V268.063H544.367L451.705 27.5937H422.749ZM428.54 69.4531L475.762 192.805H380.873L428.54 69.4531ZM8 288.547V349.555H29.3834V309.477H105.562V529.461H72.5957V547.719H173.721V529.461H140.755V309.477H216.934V349.555H237.871V288.547H8ZM376.863 306.805V325.063H404.484L480.217 438.617L405.82 547.273H375.973V565.531H461.506V547.273H428.095L491.354 454.648L553.276 547.273H522.538V565.531H625V547.273H597.38L515.41 424.813L584.015 325.063H613.417V306.805H528.329V325.063H561.741L504.718 408.781L449.032 325.063H479.771V306.805H376.863ZM185.304 376.273V394.531H218.27V616.742H185.304V635H396.91V577.555H375.527V613.625H253.909V505.414H338.552V537.922H359.935V451.531H338.552V484.039H253.909V397.203H372.854V433.719H394.237V376.273H185.304Z" stroke="white" stroke-width="16" mask="url(#path-1-outside-1_2022_3)"/>
</svg>
